<svg width="325" height="86" viewBox="0 0 325 86" fill="none" xmlns="http://www.w3.org/2000/svg">
<path d="M116.705 20.121H123.453L130.579 37.5084H130.883L138.01 20.121H144.757V46H139.45V29.1559H139.235L132.538 45.8736H128.924L122.227 29.0927H122.012V46H116.705V20.121ZM149.265 46V20.121H166.703V24.6321H154.737V30.7986H165.806V35.3097H154.737V41.4889H166.754V46H149.265ZM180.227 46H171.053V20.121H180.303C182.906 20.121 185.147 20.6391 187.026 21.6752C188.904 22.703 190.349 24.1814 191.36 26.1106C192.379 28.0397 192.889 30.3479 192.889 33.0352C192.889 35.7309 192.379 38.0476 191.36 39.9852C190.349 41.9227 188.896 43.4096 187 44.4457C185.113 45.4819 182.856 46 180.227 46ZM176.525 41.312H180C181.617 41.312 182.978 41.0255 184.081 40.4527C185.193 39.8714 186.027 38.9743 186.583 37.7612C187.148 36.5397 187.43 34.9644 187.43 33.0352C187.43 31.1229 187.148 29.5603 186.583 28.3472C186.027 27.1341 185.198 26.2411 184.094 25.6683C182.99 25.0954 181.63 24.809 180.012 24.809H176.525V41.312ZM202.413 20.121V46H196.942V20.121H202.413ZM220.954 27.5637C220.853 26.5444 220.419 25.7525 219.652 25.1881C218.886 24.6237 217.845 24.3415 216.531 24.3415C215.638 24.3415 214.884 24.4678 214.269 24.7206C213.654 24.9649 213.183 25.3061 212.854 25.7441C212.534 26.1822 212.374 26.6792 212.374 27.2352C212.357 27.6985 212.454 28.1029 212.665 28.4483C212.884 28.7937 213.183 29.0927 213.562 29.3454C213.941 29.5897 214.379 29.8046 214.876 29.9899C215.373 30.1668 215.904 30.3184 216.468 30.4448L218.793 31.0008C219.922 31.2535 220.958 31.5905 221.902 32.0117C222.845 32.4329 223.662 32.951 224.353 33.5659C225.044 34.1809 225.579 34.9054 225.958 35.7394C226.345 36.5734 226.543 37.5295 226.552 38.6078C226.543 40.1915 226.139 41.5647 225.339 42.7272C224.547 43.8813 223.401 44.7785 221.902 45.4187C220.411 46.0505 218.612 46.3665 216.506 46.3665C214.417 46.3665 212.597 46.0463 211.047 45.4061C209.505 44.7659 208.301 43.8181 207.433 42.5629C206.574 41.2993 206.123 39.7366 206.081 37.8749H211.376C211.435 38.7426 211.683 39.4671 212.121 40.0483C212.568 40.6212 213.162 41.055 213.903 41.3499C214.653 41.6363 215.499 41.7795 216.443 41.7795C217.369 41.7795 218.174 41.6447 218.856 41.3751C219.547 41.1056 220.082 40.7307 220.461 40.2505C220.84 39.7703 221.03 39.2186 221.03 38.5952C221.03 38.0139 220.857 37.5253 220.512 37.1294C220.175 36.7334 219.678 36.3965 219.021 36.1185C218.372 35.8405 217.576 35.5877 216.632 35.3603L213.814 34.6527C211.633 34.1219 209.91 33.2922 208.646 32.1633C207.383 31.0345 206.755 29.5139 206.763 27.6016C206.755 26.0347 207.172 24.6658 208.014 23.4949C208.865 22.3239 210.032 21.4099 211.515 20.7528C212.997 20.0957 214.682 19.7672 216.569 19.7672C218.49 19.7672 220.166 20.0957 221.598 20.7528C223.039 21.4099 224.159 22.3239 224.96 23.4949C225.76 24.6658 226.173 26.0221 226.198 27.5637H220.954ZM229.246 24.6321V20.121H250.501V24.6321H242.578V46H237.169V24.6321H229.246ZM276.601 33.0605C276.601 35.8826 276.066 38.2835 274.996 40.2631C273.934 42.2428 272.486 43.755 270.649 44.7996C268.821 45.8357 266.766 46.3538 264.483 46.3538C262.183 46.3538 260.119 45.8315 258.291 44.7869C256.463 43.7423 255.018 42.2302 253.957 40.2505C252.895 38.2708 252.364 35.8742 252.364 33.0605C252.364 30.2384 252.895 27.8375 253.957 25.8578C255.018 23.8782 256.463 22.3702 258.291 21.3341C260.119 20.2895 262.183 19.7672 264.483 19.7672C266.766 19.7672 268.821 20.2895 270.649 21.3341C272.486 22.3702 273.934 23.8782 274.996 25.8578C276.066 27.8375 276.601 30.2384 276.601 33.0605ZM271.053 33.0605C271.053 31.2324 270.78 29.6908 270.232 28.4356C269.693 27.1804 268.931 26.2285 267.945 25.5798C266.959 24.9312 265.805 24.6068 264.483 24.6068C263.16 24.6068 262.006 24.9312 261.02 25.5798C260.035 26.2285 259.268 27.1804 258.72 28.4356C258.181 29.6908 257.912 31.2324 257.912 33.0605C257.912 34.8885 258.181 36.4302 258.72 37.6854C259.268 38.9406 260.035 39.8925 261.02 40.5411C262.006 41.1898 263.16 41.5141 264.483 41.5141C265.805 41.5141 266.959 41.1898 267.945 40.5411C268.931 39.8925 269.693 38.9406 270.232 37.6854C270.78 36.4302 271.053 34.8885 271.053 33.0605ZM280.654 46V20.121H290.864C292.818 20.121 294.486 20.4706 295.868 21.1698C297.258 21.8606 298.315 22.842 299.04 24.114C299.772 25.3777 300.139 26.8645 300.139 28.5746C300.139 30.2932 299.768 31.7716 299.027 33.0099C298.286 34.2399 297.211 35.1834 295.805 35.8405C294.406 36.4975 292.713 36.8261 290.725 36.8261H283.889V32.4287H289.84C290.885 32.4287 291.753 32.2855 292.443 31.999C293.134 31.7126 293.648 31.283 293.985 30.7102C294.33 30.1373 294.503 29.4255 294.503 28.5746C294.503 27.7154 294.33 26.9909 293.985 26.4012C293.648 25.8115 293.13 25.365 292.431 25.0618C291.74 24.7501 290.868 24.5942 289.815 24.5942H286.125V46H280.654ZM294.629 34.223L301.061 46H295.021L288.728 34.223H294.629ZM304.006 46V20.121H321.444V24.6321H309.477V30.7986H320.546V35.3097H309.477V41.4889H321.494V46H304.006Z" fill="#10B981"/>
<path d="M118.19 71.0809C118.388 71.0933 118.561 71.0933 118.709 71.0809C118.87 71.0809 118.988 71.0561 119.062 71.0067C119.173 70.9696 119.285 70.8706 119.396 70.7098C119.52 70.5614 119.68 70.2584 119.878 69.8007C120.076 69.3555 120.354 68.6937 120.713 67.8156L116.409 58.168H117.392L121.214 66.8322L124.758 58.168H125.704L120.416 70.8582C120.342 71.0561 120.237 71.2293 120.101 71.3777C119.977 71.5385 119.823 71.6622 119.637 71.7488C119.451 71.8477 119.229 71.9034 118.969 71.9158C118.858 71.9281 118.74 71.9343 118.617 71.9343C118.493 71.9467 118.351 71.9467 118.19 71.9343V71.0809ZM131.278 68.0011C130.598 68.0011 129.967 67.8712 129.386 67.6115C128.817 67.3517 128.322 66.993 127.902 66.5354C127.481 66.0654 127.153 65.5273 126.918 64.9213C126.683 64.3152 126.566 63.6782 126.566 63.0103C126.566 62.33 126.683 61.693 126.918 61.0994C127.153 60.4933 127.481 59.9614 127.902 59.5038C128.335 59.0338 128.836 58.6689 129.404 58.4092C129.986 58.1371 130.61 58.001 131.278 58.001C131.946 58.001 132.565 58.1371 133.134 58.4092C133.703 58.6689 134.204 59.0338 134.636 59.5038C135.069 59.9614 135.403 60.4933 135.638 61.0994C135.873 61.693 135.991 62.33 135.991 63.0103C135.991 63.6782 135.873 64.3152 135.638 64.9213C135.403 65.5273 135.069 66.0654 134.636 66.5354C134.216 66.993 133.715 67.3517 133.134 67.6115C132.565 67.8712 131.946 68.0011 131.278 68.0011ZM127.494 63.0474C127.494 63.8019 127.66 64.4946 127.994 65.1254C128.341 65.7438 128.798 66.2385 129.367 66.6096C129.936 66.9807 130.567 67.1662 131.26 67.1662C131.952 67.1662 132.583 66.9807 133.152 66.6096C133.734 66.2262 134.191 65.7191 134.525 65.0883C134.871 64.4451 135.045 63.7463 135.045 62.9918C135.045 62.2373 134.871 61.5446 134.525 60.9138C134.191 60.283 133.734 59.7821 133.152 59.411C132.583 59.0276 131.959 58.8359 131.278 58.8359C130.586 58.8359 129.955 59.0276 129.386 59.411C128.817 59.7945 128.359 60.3016 128.013 60.9324C127.667 61.5632 127.494 62.2682 127.494 63.0474ZM138.121 63.7339V58.168H139.048V63.604C139.048 64.8038 139.246 65.7005 139.642 66.2942C140.05 66.8755 140.662 67.1662 141.479 67.1662C142.023 67.1662 142.542 67.0487 143.037 66.8137C143.544 66.5663 143.99 66.2262 144.373 65.7933C144.756 65.348 145.041 64.8347 145.226 64.2534V58.168H146.154V66.5911C146.154 66.7395 146.185 66.8508 146.247 66.925C146.321 66.9992 146.42 67.0425 146.544 67.0549V67.8156C146.42 67.8279 146.321 67.8341 146.247 67.8341C146.185 67.8341 146.129 67.8279 146.08 67.8156C145.87 67.7908 145.696 67.7042 145.56 67.5558C145.424 67.395 145.35 67.2033 145.338 66.9807L145.319 65.5335C144.899 66.3004 144.317 66.9065 143.575 67.3517C142.845 67.7846 142.054 68.0011 141.2 68.0011C140.186 68.0011 139.419 67.6424 138.9 66.925C138.38 66.2076 138.121 65.1439 138.121 63.7339ZM153.666 59.0029C152.801 59.0276 152.04 59.2873 151.384 59.7821C150.741 60.2645 150.29 60.9324 150.03 61.7858V67.8156H149.102V58.168H149.993V60.5428C150.327 59.8625 150.772 59.3121 151.329 58.8915C151.885 58.4586 152.473 58.2113 153.091 58.1494C153.215 58.1371 153.326 58.1309 153.425 58.1309C153.524 58.1309 153.605 58.1309 153.666 58.1309V59.0029ZM164.042 67.3517C163.98 67.3765 163.857 67.4383 163.671 67.5373C163.486 67.6362 163.251 67.729 162.966 67.8156C162.682 67.8898 162.366 67.9269 162.02 67.9269C161.686 67.9269 161.37 67.865 161.074 67.7413C160.789 67.6053 160.56 67.4074 160.387 67.1476C160.214 66.8879 160.127 66.5725 160.127 66.2014V58.9286H158.773V58.168H160.127V54.8655H161.055V58.168H163.3V58.9286H161.055V65.9788C161.08 66.3375 161.21 66.6096 161.445 66.7951C161.68 66.9683 161.952 67.0549 162.261 67.0549C162.644 67.0549 162.978 66.993 163.263 66.8693C163.547 66.7333 163.714 66.6467 163.764 66.6096L164.042 67.3517ZM170.245 59.0029C169.379 59.0276 168.618 59.2873 167.963 59.7821C167.319 60.2645 166.868 60.9324 166.608 61.7858V67.8156H165.681V58.168H166.571V60.5428C166.905 59.8625 167.35 59.3121 167.907 58.8915C168.464 58.4586 169.051 58.2113 169.669 58.1494C169.793 58.1371 169.904 58.1309 170.003 58.1309C170.102 58.1309 170.183 58.1309 170.245 58.1309V59.0029ZM171.911 63.7339V58.168H172.839V63.604C172.839 64.8038 173.037 65.7005 173.432 66.2942C173.841 66.8755 174.453 67.1662 175.269 67.1662C175.813 67.1662 176.333 67.0487 176.828 66.8137C177.335 66.5663 177.78 66.2262 178.163 65.7933C178.547 65.348 178.831 64.8347 179.017 64.2534V58.168H179.945V66.5911C179.945 66.7395 179.975 66.8508 180.037 66.925C180.112 66.9992 180.21 67.0425 180.334 67.0549V67.8156C180.21 67.8279 180.112 67.8341 180.037 67.8341C179.975 67.8341 179.92 67.8279 179.87 67.8156C179.66 67.7908 179.487 67.7042 179.351 67.5558C179.215 67.395 179.141 67.2033 179.128 66.9807L179.11 65.5335C178.689 66.3004 178.108 66.9065 177.366 67.3517C176.636 67.7846 175.844 68.0011 174.991 68.0011C173.977 68.0011 173.21 67.6424 172.69 66.925C172.171 66.2076 171.911 65.1439 171.911 63.7339ZM185.936 68.0011C185.169 68.0011 184.458 67.8712 183.802 67.6115C183.146 67.3517 182.571 66.9559 182.077 66.4241L182.503 65.7747C183.035 66.2818 183.573 66.6529 184.117 66.8879C184.662 67.1105 185.255 67.2219 185.898 67.2219C186.727 67.2219 187.395 67.0487 187.902 66.7024C188.422 66.356 188.681 65.8737 188.681 65.2552C188.681 64.8347 188.558 64.5131 188.31 64.2905C188.075 64.0555 187.729 63.8699 187.271 63.7339C186.826 63.5855 186.282 63.4309 185.639 63.2701C184.983 63.0969 184.427 62.9176 183.969 62.732C183.524 62.5465 183.19 62.3053 182.967 62.0085C182.744 61.7116 182.633 61.3096 182.633 60.8025C182.633 60.1717 182.788 59.6522 183.097 59.244C183.419 58.8235 183.845 58.5143 184.377 58.3164C184.921 58.1061 185.521 58.001 186.177 58.001C186.931 58.001 187.587 58.1247 188.143 58.3721C188.712 58.6194 189.145 58.9472 189.442 59.3554L188.941 59.9491C188.632 59.5533 188.23 59.2626 187.735 59.0771C187.24 58.8792 186.696 58.7802 186.103 58.7802C185.657 58.7802 185.237 58.8421 184.841 58.9658C184.445 59.0894 184.124 59.2935 183.876 59.578C183.641 59.8501 183.524 60.2212 183.524 60.6912C183.524 61.0622 183.61 61.3529 183.783 61.5632C183.969 61.7734 184.241 61.9466 184.6 62.0827C184.958 62.2064 185.404 62.3424 185.936 62.4908C186.69 62.6764 187.339 62.8681 187.884 63.066C188.428 63.2639 188.848 63.5236 189.145 63.8452C189.442 64.1544 189.591 64.5935 189.591 65.1625C189.591 66.0406 189.257 66.7333 188.589 67.2404C187.921 67.7475 187.036 68.0011 185.936 68.0011ZM196.075 67.3517C196.013 67.3765 195.89 67.4383 195.704 67.5373C195.519 67.6362 195.284 67.729 194.999 67.8156C194.715 67.8898 194.399 67.9269 194.053 67.9269C193.719 67.9269 193.403 67.865 193.107 67.7413C192.822 67.6053 192.593 67.4074 192.42 67.1476C192.247 66.8879 192.16 66.5725 192.16 66.2014V58.9286H190.806V58.168H192.16V54.8655H193.088V58.168H195.333V58.9286H193.088V65.9788C193.113 66.3375 193.243 66.6096 193.478 66.7951C193.713 66.9683 193.985 67.0549 194.294 67.0549C194.677 67.0549 195.011 66.993 195.296 66.8693C195.58 66.7333 195.747 66.6467 195.797 66.6096L196.075 67.3517ZM201.633 68.0011C200.952 68.0011 200.322 67.8712 199.74 67.6115C199.159 67.3394 198.652 66.9745 198.219 66.5168C197.798 66.0468 197.464 65.5088 197.217 64.9027C196.982 64.2843 196.864 63.6349 196.864 62.9547C196.864 62.0394 197.069 61.2107 197.477 60.4685C197.885 59.7264 198.448 59.1327 199.165 58.6875C199.882 58.2298 200.686 58.001 201.577 58.001C202.492 58.001 203.302 58.2298 204.007 58.6875C204.712 59.1451 205.269 59.7512 205.677 60.5057C206.098 61.2478 206.308 62.0641 206.308 62.9547C206.308 63.0289 206.308 63.1031 206.308 63.1773C206.308 63.2515 206.302 63.3133 206.289 63.3628H197.829C197.879 64.0926 198.083 64.7543 198.441 65.348C198.8 65.9417 199.258 66.4117 199.814 66.758C200.383 67.092 201.002 67.259 201.67 67.259C202.338 67.259 202.968 67.0858 203.562 66.7395C204.156 66.3932 204.57 65.9479 204.805 65.4037L205.622 65.6263C205.436 66.0839 205.139 66.4921 204.731 66.8508C204.335 67.2095 203.865 67.494 203.321 67.7042C202.789 67.9021 202.226 68.0011 201.633 68.0011ZM197.792 62.6393H205.417C205.368 61.8848 205.17 61.2169 204.824 60.6355C204.477 60.0542 204.02 59.5966 203.451 59.2626C202.894 58.9286 202.276 58.7617 201.595 58.7617C200.915 58.7617 200.297 58.9286 199.74 59.2626C199.184 59.5966 198.732 60.0542 198.386 60.6355C198.039 61.2169 197.842 61.8848 197.792 62.6393ZM207.681 63.0103C207.681 62.1074 207.873 61.2787 208.256 60.5242C208.64 59.7697 209.165 59.1637 209.833 58.706C210.501 58.236 211.262 58.001 212.115 58.001C212.956 58.001 213.698 58.2236 214.342 58.6689C214.997 59.1142 215.51 59.646 215.881 60.2645V54.2718H216.809V66.5911C216.809 66.7395 216.84 66.8508 216.902 66.925C216.976 66.9992 217.075 67.0425 217.199 67.0549V67.8156C217.001 67.8403 216.852 67.8465 216.753 67.8341C216.531 67.797 216.345 67.6919 216.197 67.5187C216.048 67.3455 215.974 67.16 215.974 66.9621V65.886C215.578 66.5292 215.047 67.0425 214.379 67.4259C213.711 67.8094 213.024 68.0011 212.319 68.0011C211.651 68.0011 211.033 67.865 210.464 67.5929C209.895 67.3084 209.4 66.9312 208.98 66.4612C208.572 65.9912 208.25 65.4593 208.015 64.8656C207.792 64.2719 207.681 63.6535 207.681 63.0103ZM215.881 64.5688V61.3962C215.708 60.9262 215.43 60.4995 215.047 60.116C214.663 59.7202 214.23 59.411 213.748 59.1884C213.266 58.9534 212.789 58.8359 212.319 58.8359C211.763 58.8359 211.256 58.9534 210.798 59.1884C210.353 59.4234 209.963 59.7388 209.629 60.1346C209.308 60.5304 209.06 60.9818 208.887 61.489C208.714 61.9837 208.627 62.497 208.627 63.0289C208.627 63.5731 208.726 64.0988 208.924 64.6059C209.122 65.1006 209.394 65.5459 209.74 65.9417C210.099 66.3251 210.507 66.6282 210.965 66.8508C211.435 67.0611 211.942 67.1662 212.486 67.1662C212.82 67.1662 213.173 67.0982 213.544 66.9621C213.927 66.8261 214.286 66.6405 214.62 66.4055C214.966 66.1581 215.251 65.8799 215.473 65.5706C215.708 65.249 215.844 64.9151 215.881 64.5688ZM228.573 68.0011C227.893 68.0011 227.262 67.8712 226.681 67.6115C226.112 67.3517 225.617 66.993 225.196 66.5354C224.776 66.0654 224.448 65.5273 224.213 64.9213C223.978 64.3152 223.861 63.6782 223.861 63.0103C223.861 62.33 223.978 61.693 224.213 61.0994C224.448 60.4933 224.776 59.9614 225.196 59.5038C225.629 59.0338 226.13 58.6689 226.699 58.4092C227.281 58.1371 227.905 58.001 228.573 58.001C229.241 58.001 229.859 58.1371 230.428 58.4092C230.997 58.6689 231.498 59.0338 231.931 59.5038C232.364 59.9614 232.698 60.4933 232.933 61.0994C233.168 61.693 233.286 62.33 233.286 63.0103C233.286 63.6782 233.168 64.3152 232.933 64.9213C232.698 65.5273 232.364 66.0654 231.931 66.5354C231.511 66.993 231.01 67.3517 230.428 67.6115C229.859 67.8712 229.241 68.0011 228.573 68.0011ZM224.788 63.0474C224.788 63.8019 224.955 64.4946 225.289 65.1254C225.635 65.7438 226.093 66.2385 226.662 66.6096C227.231 66.9807 227.862 67.1662 228.555 67.1662C229.247 67.1662 229.878 66.9807 230.447 66.6096C231.028 66.2262 231.486 65.7191 231.82 65.0883C232.166 64.4451 232.339 63.7463 232.339 62.9918C232.339 62.2373 232.166 61.5446 231.82 60.9138C231.486 60.283 231.028 59.7821 230.447 59.411C229.878 59.0276 229.253 58.8359 228.573 58.8359C227.88 58.8359 227.25 59.0276 226.681 59.411C226.112 59.7945 225.654 60.3016 225.308 60.9324C224.961 61.5632 224.788 62.2682 224.788 63.0474ZM243.393 67.8156H242.466V62.4352C242.466 61.1983 242.286 60.2954 241.927 59.7264C241.581 59.1451 241.025 58.8544 240.258 58.8544C239.713 58.8544 239.175 58.9843 238.644 59.244C238.124 59.5038 237.666 59.8625 237.271 60.3201C236.887 60.7654 236.609 61.2725 236.436 61.8415V67.8156H235.508V58.168H236.38V60.4685C236.64 59.9738 236.986 59.5471 237.419 59.1884C237.852 58.8173 238.334 58.5267 238.866 58.3164C239.398 58.1061 239.948 58.001 240.517 58.001C241.049 58.001 241.495 58.0999 241.853 58.2978C242.224 58.4834 242.521 58.7555 242.744 59.1142C242.979 59.4729 243.146 59.9181 243.245 60.45C243.344 60.9819 243.393 61.5879 243.393 62.2682V67.8156ZM246.272 54.2718H247.218V65.9046C247.218 66.3499 247.311 66.6591 247.497 66.8322C247.682 66.993 247.923 67.0734 248.22 67.0734C248.418 67.0734 248.622 67.0549 248.832 67.0178C249.043 66.9807 249.228 66.9312 249.389 66.8693L249.575 67.63C249.364 67.7042 249.105 67.7723 248.795 67.8341C248.486 67.8959 248.22 67.9269 247.998 67.9269C247.478 67.9269 247.057 67.7723 246.736 67.463C246.427 67.1415 246.272 66.7147 246.272 66.1829V54.2718ZM250.999 67.8156V58.168H251.927V67.8156H250.999ZM250.999 55.9787V54.2718H251.927V55.9787H250.999ZM262.725 67.8156H261.798V62.4352C261.798 61.1983 261.618 60.2954 261.26 59.7264C260.913 59.1451 260.357 58.8544 259.59 58.8544C259.046 58.8544 258.508 58.9843 257.976 59.244C257.456 59.5038 256.999 59.8625 256.603 60.3201C256.219 60.7654 255.941 61.2725 255.768 61.8415V67.8156H254.84V58.168H255.712V60.4685C255.972 59.9738 256.318 59.5471 256.751 59.1884C257.184 58.8173 257.666 58.5267 258.198 58.3164C258.73 58.1061 259.281 58.001 259.85 58.001C260.381 58.001 260.827 58.0999 261.185 58.2978C261.556 58.4834 261.853 58.7555 262.076 59.1142C262.311 59.4729 262.478 59.9181 262.577 60.45C262.676 60.9819 262.725 61.5879 262.725 62.2682V67.8156ZM269.63 68.0011C268.95 68.0011 268.319 67.8712 267.738 67.6115C267.156 67.3394 266.649 66.9745 266.216 66.5168C265.796 66.0468 265.462 65.5088 265.215 64.9027C264.98 64.2843 264.862 63.6349 264.862 62.9547C264.862 62.0394 265.066 61.2107 265.474 60.4685C265.882 59.7264 266.445 59.1327 267.163 58.6875C267.88 58.2298 268.684 58.001 269.575 58.001C270.49 58.001 271.3 58.2298 272.005 58.6875C272.71 59.1451 273.267 59.7512 273.675 60.5057C274.095 61.2478 274.306 62.0641 274.306 62.9547C274.306 63.0289 274.306 63.1031 274.306 63.1773C274.306 63.2515 274.299 63.3133 274.287 63.3628H265.827C265.876 64.0926 266.08 64.7543 266.439 65.348C266.798 65.9417 267.255 66.4117 267.812 66.758C268.381 67.092 268.999 67.259 269.667 67.259C270.335 67.259 270.966 67.0858 271.56 66.7395C272.153 66.3932 272.568 65.9479 272.803 65.4037L273.619 65.6263C273.434 66.0839 273.137 66.4921 272.729 66.8508C272.333 67.2095 271.863 67.494 271.319 67.7042C270.787 67.9021 270.224 68.0011 269.63 68.0011ZM265.79 62.6393H273.415C273.366 61.8848 273.168 61.2169 272.821 60.6355C272.475 60.0542 272.017 59.5966 271.448 59.2626C270.892 58.9286 270.273 58.7617 269.593 58.7617C268.913 58.7617 268.294 58.9286 267.738 59.2626C267.181 59.5966 266.73 60.0542 266.383 60.6355C266.037 61.2169 265.839 61.8848 265.79 62.6393ZM284.154 68.0011C283.387 68.0011 282.676 67.8712 282.021 67.6115C281.365 67.3517 280.79 66.9559 280.295 66.4241L280.722 65.7747C281.254 66.2818 281.792 66.6529 282.336 66.8879C282.88 67.1105 283.474 67.2219 284.117 67.2219C284.946 67.2219 285.614 67.0487 286.121 66.7024C286.64 66.356 286.9 65.8737 286.9 65.2552C286.9 64.8347 286.776 64.5131 286.529 64.2905C286.294 64.0555 285.948 63.8699 285.49 63.7339C285.045 63.5855 284.501 63.4309 283.857 63.2701C283.202 63.0969 282.645 62.9176 282.188 62.732C281.742 62.5465 281.408 62.3053 281.186 62.0085C280.963 61.7116 280.852 61.3096 280.852 60.8025C280.852 60.1717 281.006 59.6522 281.316 59.244C281.637 58.8235 282.064 58.5143 282.596 58.3164C283.14 58.1061 283.74 58.001 284.396 58.001C285.15 58.001 285.806 58.1247 286.362 58.3721C286.931 58.6194 287.364 58.9472 287.661 59.3554L287.16 59.9491C286.851 59.5533 286.449 59.2626 285.954 59.0771C285.459 58.8792 284.915 58.7802 284.321 58.7802C283.876 58.7802 283.455 58.8421 283.06 58.9658C282.664 59.0894 282.342 59.2935 282.095 59.578C281.86 59.8501 281.742 60.2212 281.742 60.6912C281.742 61.0622 281.829 61.3529 282.002 61.5632C282.188 61.7734 282.46 61.9466 282.819 62.0827C283.177 62.2064 283.622 62.3424 284.154 62.4908C284.909 62.6764 285.558 62.8681 286.102 63.066C286.647 63.2639 287.067 63.5236 287.364 63.8452C287.661 64.1544 287.809 64.5935 287.809 65.1625C287.809 66.0406 287.475 66.7333 286.807 67.2404C286.139 67.7475 285.255 68.0011 284.154 68.0011ZM294.294 67.3517C294.232 67.3765 294.108 67.4383 293.923 67.5373C293.737 67.6362 293.502 67.729 293.218 67.8156C292.933 67.8898 292.618 67.9269 292.272 67.9269C291.938 67.9269 291.622 67.865 291.325 67.7413C291.041 67.6053 290.812 67.4074 290.639 67.1476C290.466 66.8879 290.379 66.5725 290.379 66.2014V58.9286H289.025V58.168H290.379V54.8655H291.307V58.168H293.552V58.9286H291.307V65.9788C291.332 66.3375 291.461 66.6096 291.696 66.7951C291.931 66.9683 292.204 67.0549 292.513 67.0549C292.896 67.0549 293.23 66.993 293.515 66.8693C293.799 66.7333 293.966 66.6467 294.016 66.6096L294.294 67.3517ZM299.796 68.0011C299.115 68.0011 298.485 67.8712 297.903 67.6115C297.334 67.3517 296.84 66.993 296.419 66.5354C295.999 66.0654 295.671 65.5273 295.436 64.9213C295.201 64.3152 295.083 63.6782 295.083 63.0103C295.083 62.33 295.201 61.693 295.436 61.0994C295.671 60.4933 295.999 59.9614 296.419 59.5038C296.852 59.0338 297.353 58.6689 297.922 58.4092C298.503 58.1371 299.128 58.001 299.796 58.001C300.464 58.001 301.082 58.1371 301.651 58.4092C302.22 58.6689 302.721 59.0338 303.154 59.5038C303.587 59.9614 303.921 60.4933 304.156 61.0994C304.391 61.693 304.508 62.33 304.508 63.0103C304.508 63.6782 304.391 64.3152 304.156 64.9213C303.921 65.5273 303.587 66.0654 303.154 66.5354C302.733 66.993 302.232 67.3517 301.651 67.6115C301.082 67.8712 300.464 68.0011 299.796 68.0011ZM296.011 63.0474C296.011 63.8019 296.178 64.4946 296.512 65.1254C296.858 65.7438 297.316 66.2385 297.885 66.6096C298.454 66.9807 299.084 67.1662 299.777 67.1662C300.47 67.1662 301.101 66.9807 301.67 66.6096C302.251 66.2262 302.709 65.7191 303.042 65.0883C303.389 64.4451 303.562 63.7463 303.562 62.9918C303.562 62.2373 303.389 61.5446 303.042 60.9138C302.709 60.283 302.251 59.7821 301.67 59.411C301.101 59.0276 300.476 58.8359 299.796 58.8359C299.103 58.8359 298.472 59.0276 297.903 59.411C297.334 59.7945 296.877 60.3016 296.53 60.9324C296.184 61.5632 296.011 62.2682 296.011 63.0474ZM311.295 59.0029C310.429 59.0276 309.668 59.2873 309.013 59.7821C308.37 60.2645 307.918 60.9324 307.658 61.7858V67.8156H306.731V58.168H307.621V60.5428C307.955 59.8625 308.401 59.3121 308.957 58.8915C309.514 58.4586 310.101 58.2113 310.72 58.1494C310.843 58.1371 310.955 58.1309 311.054 58.1309C311.153 58.1309 311.233 58.1309 311.295 58.1309V59.0029ZM316.774 68.0011C316.093 68.0011 315.463 67.8712 314.881 67.6115C314.3 67.3394 313.793 66.9745 313.36 66.5168C312.939 66.0468 312.606 65.5088 312.358 64.9027C312.123 64.2843 312.006 63.6349 312.006 62.9547C312.006 62.0394 312.21 61.2107 312.618 60.4685C313.026 59.7264 313.589 59.1327 314.306 58.6875C315.024 58.2298 315.828 58.001 316.718 58.001C317.633 58.001 318.444 58.2298 319.149 58.6875C319.854 59.1451 320.41 59.7512 320.818 60.5057C321.239 61.2478 321.449 62.0641 321.449 62.9547C321.449 63.0289 321.449 63.1031 321.449 63.1773C321.449 63.2515 321.443 63.3133 321.431 63.3628H312.97C313.02 64.0926 313.224 64.7543 313.583 65.348C313.941 65.9417 314.399 66.4117 314.956 66.758C315.525 67.092 316.143 67.259 316.811 67.259C317.479 67.259 318.11 67.0858 318.703 66.7395C319.297 66.3932 319.711 65.9479 319.946 65.4037L320.763 65.6263C320.577 66.0839 320.28 66.4921 319.872 66.8508C319.476 67.2095 319.006 67.494 318.462 67.7042C317.93 67.9021 317.367 68.0011 316.774 68.0011ZM312.933 62.6393H320.559C320.509 61.8848 320.311 61.2169 319.965 60.6355C319.619 60.0542 319.161 59.5966 318.592 59.2626C318.035 58.9286 317.417 58.7617 316.737 58.7617C316.056 58.7617 315.438 58.9286 314.881 59.2626C314.325 59.5966 313.873 60.0542 313.527 60.6355C313.181 61.2169 312.983 61.8848 312.933 62.6393Z" fill="#059669"/>
<path d="M48.0621 21.9378C66.5001 14.6048 86.6641 20.3958 95.8201 29.2628C97.8041 31.1838 99.4891 33.1328 100.932 35.0698C101.755 30.5218 101.822 25.9918 101.03 21.6108C98.1371 5.61477 83.0461 -3.44723 69.5171 1.23377C56.0491 5.89377 50.7961 14.9508 50.7961 14.9508C50.7961 14.9508 45.5431 5.89377 32.0751 1.23377C18.5451 -3.44723 3.45414 5.61577 0.562139 21.6108C-1.57286 33.4158 2.47014 46.3038 11.0491 57.6928C12.8561 58.2998 14.7501 58.7558 16.7561 59.0188C28.7741 60.5988 33.0941 57.3848 38.1711 55.2328C41.5421 53.8048 44.0781 55.4258 43.9551 56.5618C43.7641 58.3228 37.1191 61.3318 38.5441 61.9638C44.1701 64.4598 51.0981 64.4808 56.3191 60.0218C62.8071 54.4818 65.2341 58.2688 65.2341 58.2688C65.2341 58.2688 62.0121 66.4878 52.3101 70.5688C44.2151 73.9738 35.7331 74.8128 27.9821 73.9408C34.6671 78.6658 42.3431 82.6268 50.7961 85.4538C74.9631 77.3698 92.8161 60.0518 99.1101 41.9458C94.8461 37.7388 89.6161 35.1308 83.3821 34.1858C71.3971 32.3688 67.0151 35.4978 61.8961 37.5488C58.4971 38.9108 55.9941 37.2398 56.1401 36.1058C56.3651 34.3488 63.0691 31.4718 61.6561 30.8108C56.0811 28.2048 49.1541 28.0468 43.8461 32.4018C37.2501 37.8128 34.8981 33.9788 34.8981 33.9788C34.8981 33.9788 38.2811 25.8268 48.0621 21.9378ZM43.4751 44.4668H48.1311V39.8108H53.4591V44.4668H58.1151V49.7948H53.4591V54.4508H48.1311V49.7948H43.4751V44.4668Z" fill="url(#paint0_linear_292_53)"/>
<path d="M43.4752 44.4668H48.1312V39.8108H53.4592V44.4668H58.1152V49.7948H53.4941C60.3591 53.2638 72.9672 58.4248 88.1182 60.7208C93.1042 54.8228 96.8532 48.4358 99.1092 41.9458C94.8452 37.7388 89.6152 35.1308 83.3812 34.1858C71.3962 32.3688 67.0141 35.4978 61.8951 37.5488C58.4961 38.9108 55.9932 37.2398 56.1392 36.1058C56.3642 34.3488 63.0682 31.4718 61.6552 30.8108C56.0802 28.2048 49.1532 28.0468 43.8452 32.4018C37.2492 37.8128 34.8972 33.9788 34.8972 33.9788C34.8972 33.9788 38.2811 25.8258 48.0611 21.9358C66.4991 14.6028 86.6632 20.3938 95.8192 29.2608C97.8032 31.1818 99.4882 33.1308 100.931 35.0678C101.754 30.5198 101.821 25.9898 101.029 21.6088C98.1362 5.61276 83.0452 -3.44924 69.5162 1.23176C56.0482 5.89176 50.7952 14.9488 50.7952 14.9488C50.7952 14.9488 45.5422 5.89176 32.0742 1.23176C24.3472 -1.44224 16.1132 0.37376 9.93115 5.39776C12.8352 11.6158 16.2372 17.4258 25.9282 29.1108C33.8072 38.6128 43.4752 44.4668 43.4752 44.4668Z" fill="url(#paint1_linear_292_53)"/>
<path opacity="0.31" d="M85.8291 6.98175C73.1061 0.589746 59.9751 10.5357 55.8101 15.7877C62.9931 14.2747 69.2781 13.4987 77.2311 15.1697C88.9961 17.6417 93.3991 21.8897 98.6521 28.1657C97.7241 16.5367 90.3791 9.26775 85.8291 6.98175Z" fill="url(#paint2_linear_292_53)"/>
<defs>
<linearGradient id="paint0_linear_292_53" x1="13.5403" y1="68.6303" x2="88.1902" y2="-6.01953" gradientUnits="userSpaceOnUse">
<stop stop-color="#059669"/>
<stop offset="0.2766" stop-color="#059669"/>
</linearGradient>
<linearGradient id="paint1_linear_292_53" x1="13.2861" y1="68.7994" x2="88.1592" y2="-6.07374" gradientUnits="userSpaceOnUse">
<stop stop-color="#10B981"/>
<stop offset="1" stop-color="#059669"/>
</linearGradient>
<linearGradient id="paint2_linear_292_53" x1="75.602" y1="23.3112" x2="91.1277" y2="8.94425" gradientUnits="userSpaceOnUse">
<stop stop-color="#00A482"/>
<stop offset="1" stop-color="#79DD83"/>
</linearGradient>
</defs>
</svg>
